<svg width="31" height="26" viewBox="0 0 31 26" fill="none" xmlns="http://www.w3.org/2000/svg">
<path d="M26.35 0.234863H4.65C3.41674 0.234863 2.234 0.728724 1.36195 1.6078C0.48991 2.48688 0 3.67916 0 4.92236V20.5474C0 21.7906 0.48991 22.9829 1.36195 23.8619C2.234 24.741 3.41674 25.2349 4.65 25.2349H26.35C27.5833 25.2349 28.766 24.741 29.638 23.8619C30.5101 22.9829 31 21.7906 31 20.5474V4.92236C31 3.67916 30.5101 2.48688 29.638 1.6078C28.766 0.728724 27.5833 0.234863 26.35 0.234863ZM26.35 3.35986L16.275 10.3442C16.0394 10.4814 15.7721 10.5536 15.5 10.5536C15.2279 10.5536 14.9606 10.4814 14.725 10.3442L4.65 3.35986H26.35Z" fill="white"/>
</svg>
