<svg width="25" height="32" viewBox="0 0 25 32" fill="none" xmlns="http://www.w3.org/2000/svg">
<path d="M20.3125 9.41485C19.4496 9.41485 18.75 8.7153 18.75 7.85235V6.46915C18.75 4.81572 18.0915 3.23 16.9194 2.06084C15.7473 0.891688 14.1576 0.234863 12.5 0.234863C10.8424 0.234863 9.25268 0.891688 8.08058 2.06084C6.90848 3.23 6.25 4.81572 6.25 6.46915V7.85235C6.25 8.7153 5.55045 9.41485 4.6875 9.41485C3.4443 9.41485 2.25201 9.90747 1.37294 10.7843C0.49386 11.6612 0 12.8505 0 14.0906V26.5591C0 27.7992 0.49386 28.9885 1.37294 29.8654C2.25201 30.7422 3.4443 31.2349 4.6875 31.2349H20.3125C21.5557 31.2349 22.748 30.7422 23.6271 29.8654C24.5061 28.9885 25 27.7992 25 26.5591V14.0906C25 12.8505 24.5061 11.6612 23.6271 10.7843C22.748 9.90747 21.5557 9.41485 20.3125 9.41485ZM9.375 6.46915C9.35398 5.62019 9.67101 4.7975 10.2567 4.18116C10.8424 3.56482 11.649 3.20504 12.5 3.18056C13.351 3.20504 14.1576 3.56482 14.7433 4.18116C15.329 4.7975 15.646 5.62019 15.625 6.46915C15.625 8.09602 14.3062 9.41485 12.6793 9.41485H12.3207C10.6938 9.41485 9.375 8.09602 9.375 6.46915ZM12.5 25.0006C11.5729 25.0006 10.6666 24.7264 9.89576 24.2126C9.12491 23.6988 8.5241 22.9686 8.16931 22.1142C7.81453 21.2598 7.7217 20.3197 7.90257 19.4127C8.08344 18.5057 8.52988 17.6725 9.18544 17.0186C9.84099 16.3647 10.6762 15.9194 11.5855 15.739C12.4948 15.5586 13.4373 15.6512 14.2938 16.0051C15.1504 16.359 15.8824 16.9583 16.3975 17.7272C16.9126 18.4961 17.1875 19.4001 17.1875 20.3249C17.1875 21.5649 16.6936 22.7542 15.8146 23.6311C14.9355 24.508 13.7432 25.0006 12.5 25.0006Z" fill="white"/>
</svg>
